<mxfile host="app.diagrams.net" modified="2022-01-25T14:37:08.206Z" agent="5.0 (Windows NT 10.0; Win64; x64) AppleWebKit/537.36 (KHTML, like Gecko) Chrome/97.0.4692.99 Safari/537.36" etag="sBsh-OVYYXwqtJ5lJSr2" version="16.1.2" type="github">
  <diagram id="nZ_zUMPqft31DG4bWZLx" name="Page-1">
    <mxGraphModel dx="982" dy="623" grid="1" gridSize="10" guides="1" tooltips="1" connect="1" arrows="1" fold="1" page="1" pageScale="1" pageWidth="827" pageHeight="1169" math="0" shadow="0">
      <root>
        <mxCell id="0" />
        <mxCell id="1" parent="0" />
        <mxCell id="W7DrDDVvcnlCfZNVrkUa-17" value="" style="group" vertex="1" connectable="0" parent="1">
          <mxGeometry x="200" y="200" width="240" height="220" as="geometry" />
        </mxCell>
        <mxCell id="W7DrDDVvcnlCfZNVrkUa-14" value="&lt;p style=&quot;line-height: 0.9&quot;&gt;HIS&lt;br&gt;QIS&lt;/p&gt;" style="text;html=1;strokeColor=none;fillColor=none;align=right;verticalAlign=middle;whiteSpace=wrap;rounded=0;fontFamily=Lato;fontSize=120;fontColor=#0072BB;fontSource=https%3A%2F%2Ffonts.googleapis.com%2Fcss%3Ffamily%3DLato;fontStyle=1" vertex="1" parent="W7DrDDVvcnlCfZNVrkUa-17">
          <mxGeometry width="200" height="200" as="geometry" />
        </mxCell>
        <mxCell id="W7DrDDVvcnlCfZNVrkUa-6" value="" style="whiteSpace=wrap;html=1;aspect=fixed;fontFamily=Lato;fontSource=https%3A%2F%2Ffonts.googleapis.com%2Fcss%3Ffamily%3DLato;fontSize=120;fontColor=#0072BB;strokeColor=none;fillColor=#0072BB;" vertex="1" parent="W7DrDDVvcnlCfZNVrkUa-17">
          <mxGeometry x="210" y="80" width="20" height="20" as="geometry" />
        </mxCell>
        <mxCell id="W7DrDDVvcnlCfZNVrkUa-9" value="" style="whiteSpace=wrap;html=1;aspect=fixed;fontFamily=Lato;fontSource=https%3A%2F%2Ffonts.googleapis.com%2Fcss%3Ffamily%3DLato;fontSize=120;fontColor=#0072BB;strokeColor=none;fillColor=#AFC6E7;" vertex="1" parent="W7DrDDVvcnlCfZNVrkUa-17">
          <mxGeometry x="210" width="20" height="20" as="geometry" />
        </mxCell>
        <mxCell id="W7DrDDVvcnlCfZNVrkUa-10" value="" style="whiteSpace=wrap;html=1;aspect=fixed;fontFamily=Lato;fontSource=https%3A%2F%2Ffonts.googleapis.com%2Fcss%3Ffamily%3DLato;fontSize=120;fontColor=#0072BB;strokeColor=none;fillColor=#669BD3;" vertex="1" parent="W7DrDDVvcnlCfZNVrkUa-17">
          <mxGeometry x="210" y="40" width="20" height="20" as="geometry" />
        </mxCell>
        <mxCell id="W7DrDDVvcnlCfZNVrkUa-18" value="" style="shape=flexArrow;endArrow=classic;html=1;rounded=0;fontFamily=Lato;fontSource=https%3A%2F%2Ffonts.googleapis.com%2Fcss%3Ffamily%3DLato;fontSize=120;fontColor=#0072BB;sketch=0;fillColor=#1BA466;gradientColor=#0072BB;gradientDirection=east;strokeWidth=2;strokeColor=none;" edge="1" parent="W7DrDDVvcnlCfZNVrkUa-17">
          <mxGeometry width="50" height="50" relative="1" as="geometry">
            <mxPoint x="10" y="-80" as="sourcePoint" />
            <mxPoint x="160" as="targetPoint" />
            <Array as="points">
              <mxPoint x="160" y="-80" />
            </Array>
          </mxGeometry>
        </mxCell>
        <mxCell id="W7DrDDVvcnlCfZNVrkUa-3" value="1,0" style="text;html=1;strokeColor=none;fillColor=none;align=center;verticalAlign=middle;whiteSpace=wrap;rounded=0;shadow=0;fontFamily=Lato;fontSource=https%3A%2F%2Ffonts.googleapis.com%2Fcss%3Ffamily%3DLato;fontSize=40;fontColor=#000000;" vertex="1" parent="W7DrDDVvcnlCfZNVrkUa-17">
          <mxGeometry x="10" y="-120" width="60" height="30" as="geometry" />
        </mxCell>
        <mxCell id="W7DrDDVvcnlCfZNVrkUa-20" value="4,0" style="text;html=1;strokeColor=none;fillColor=none;align=center;verticalAlign=middle;whiteSpace=wrap;rounded=0;shadow=0;fontFamily=Lato;fontSource=https%3A%2F%2Ffonts.googleapis.com%2Fcss%3Ffamily%3DLato;fontSize=40;fontColor=#000000;" vertex="1" parent="W7DrDDVvcnlCfZNVrkUa-17">
          <mxGeometry x="80" y="-120" width="60" height="30" as="geometry" />
        </mxCell>
        <mxCell id="W7DrDDVvcnlCfZNVrkUa-21" value="2,3" style="text;html=1;strokeColor=none;fillColor=none;align=left;verticalAlign=middle;whiteSpace=wrap;rounded=0;shadow=0;fontFamily=Lato;fontSource=https%3A%2F%2Ffonts.googleapis.com%2Fcss%3Ffamily%3DLato;fontSize=40;fontColor=#000000;rotation=45;" vertex="1" parent="W7DrDDVvcnlCfZNVrkUa-17">
          <mxGeometry x="150" y="-110" width="65" height="28" as="geometry" />
        </mxCell>
        <mxCell id="W7DrDDVvcnlCfZNVrkUa-22" value="1,7" style="text;html=1;strokeColor=none;fillColor=none;align=center;verticalAlign=middle;whiteSpace=wrap;rounded=0;shadow=0;fontFamily=Lato;fontSource=https%3A%2F%2Ffonts.googleapis.com%2Fcss%3Ffamily%3DLato;fontSize=40;fontColor=#000000;rotation=90;" vertex="1" parent="W7DrDDVvcnlCfZNVrkUa-17">
          <mxGeometry x="160" y="-50" width="60" height="30" as="geometry" />
        </mxCell>
        <mxCell id="W7DrDDVvcnlCfZNVrkUa-19" value="" style="group" vertex="1" connectable="0" parent="1">
          <mxGeometry x="40" y="40" width="160" height="160" as="geometry" />
        </mxCell>
        <mxCell id="W7DrDDVvcnlCfZNVrkUa-4" value="" style="rounded=0;whiteSpace=wrap;html=1;shadow=0;fontFamily=Lato;fontSource=https%3A%2F%2Ffonts.googleapis.com%2Fcss%3Ffamily%3DLato;fontSize=80;fontColor=#FFFFFF;fillColor=#1BA466;strokeColor=none;" vertex="1" parent="W7DrDDVvcnlCfZNVrkUa-19">
          <mxGeometry x="40" y="40" width="120" height="40" as="geometry" />
        </mxCell>
        <mxCell id="W7DrDDVvcnlCfZNVrkUa-5" value="" style="verticalLabelPosition=bottom;verticalAlign=top;html=1;shape=mxgraph.basic.three_corner_round_rect;dx=4.35;shadow=0;fontFamily=Lato;fontSource=https%3A%2F%2Ffonts.googleapis.com%2Fcss%3Ffamily%3DLato;fontSize=80;fontColor=#FFFFFF;fillColor=#2FC582;flipH=1;strokeColor=none;" vertex="1" parent="W7DrDDVvcnlCfZNVrkUa-19">
          <mxGeometry x="40" width="120" height="40" as="geometry" />
        </mxCell>
        <mxCell id="W7DrDDVvcnlCfZNVrkUa-11" value="" style="verticalLabelPosition=bottom;verticalAlign=top;html=1;shape=mxgraph.basic.three_corner_round_rect;dx=4.35;shadow=0;fontFamily=Lato;fontSource=https%3A%2F%2Ffonts.googleapis.com%2Fcss%3Ffamily%3DLato;fontSize=80;fontColor=#FFFFFF;fillColor=#115C34;flipH=1;flipV=1;strokeColor=none;" vertex="1" parent="W7DrDDVvcnlCfZNVrkUa-19">
          <mxGeometry x="40" y="120" width="120" height="40" as="geometry" />
        </mxCell>
        <mxCell id="W7DrDDVvcnlCfZNVrkUa-12" value="" style="rounded=0;whiteSpace=wrap;html=1;shadow=0;fontFamily=Lato;fontSource=https%3A%2F%2Ffonts.googleapis.com%2Fcss%3Ffamily%3DLato;fontSize=80;fontColor=#FFFFFF;fillColor=#077D3F;strokeColor=none;" vertex="1" parent="W7DrDDVvcnlCfZNVrkUa-19">
          <mxGeometry x="40" y="80" width="120" height="40" as="geometry" />
        </mxCell>
        <mxCell id="W7DrDDVvcnlCfZNVrkUa-13" value="&lt;font color=&quot;#ffffff&quot; style=&quot;font-size: 70px&quot;&gt;X&lt;/font&gt;" style="rounded=1;whiteSpace=wrap;html=1;fillColor=#087D40;fontStyle=1;fontFamily=Helvetica;" vertex="1" parent="W7DrDDVvcnlCfZNVrkUa-19">
          <mxGeometry y="30" width="100" height="100" as="geometry" />
        </mxCell>
      </root>
    </mxGraphModel>
  </diagram>
</mxfile>
